<?xml version="1.0" encoding="UTF-8" standalone="no"?>
<!-- Created with Inkscape (http://www.inkscape.org/) -->

<svg
   width="210mm"
   height="300mm"
   viewBox="0 0 210 300"
   version="1.1"
   id="svg1"
   xmlns="http://www.w3.org/2000/svg"
   xmlns:svg="http://www.w3.org/2000/svg">
  <defs
     id="defs1">
    <clipPath
       clipPathUnits="userSpaceOnUse"
       id="clipPath100">
      <path
         d="M 0,0 H 612 V 945.8182 H 0 Z"
         transform="translate(0,-2.5000001e-5)"
         id="path100" />
    </clipPath>
    <clipPath
       clipPathUnits="userSpaceOnUse"
       id="clipPath106">
      <path
         d="M 0,0 H 612 V 945.8182 H 0 Z"
         transform="translate(0,-2.5000001e-5)"
         id="path106" />
    </clipPath>
    <clipPath
       clipPathUnits="userSpaceOnUse"
       id="clipPath100-0">
      <path
         d="M 0,0 H 612 V 945.8182 H 0 Z"
         transform="translate(0,-2.5000001e-5)"
         id="path100-3" />
    </clipPath>
    <clipPath
       clipPathUnits="userSpaceOnUse"
       id="clipPath100-23">
      <path
         d="M 0,0 H 612 V 945.8182 H 0 Z"
         transform="translate(0,-2.5000001e-5)"
         id="path100-6" />
    </clipPath>
  </defs>
  <g
     id="layer1"
     style="fill:#000000">
    <path
       id="path83"
       style="display:inline;fill:#000000;fill-opacity:0;fill-rule:nonzero;stroke:none;stroke-width:1.22221"
       d="M -11.630431,-720.87525 V 314.57044 h 70.944314 c -0.235315,-1.07275 -0.368815,-2.27144 -0.368815,-3.60219 v -11.96308 -12.54318 c 0.214736,-1.67784 -0.673713,-5.67279 0.646313,-6.97876 1.875542,-1.85542 4.436248,-2.85642 6.654724,-4.2843 1.903584,1.02737 4.001037,1.75838 5.711212,3.08297 1.667177,1.29139 2.993368,8.01317 3.566375,10.13159 0.752979,2.07099 0.876792,4.37082 1.496728,6.48821 0.152167,0.003 0.304391,0.011 0.456536,0.0138 5.766342,0.0959 9.060091,2.60014 9.934644,5.45345 0.741438,-1.47985 1.462243,-2.9694 2.071432,-4.50991 0.652211,-1.61806 1.314362,-3.32443 1.810045,-4.95388 0.0031,-0.0137 0.01209,-0.0174 0.01632,-0.0278 0.127382,-1.73439 1.062512,-2.60315 2.006981,-2.60315 0.01095,0 0.02283,9.7e-4 0.03399,0.003 0.220204,-0.0977 0.444169,-0.32739 0.651674,-0.3312 0.949161,-0.0174 1.67727,0.95409 1.387522,2.96121 -0.0031,0.0172 -0.01353,0.0312 -0.01632,0.0485 0.0083,0.11671 0.01488,0.23732 0.01632,0.36163 0.02438,2.21345 -0.599808,4.36379 -1.213853,6.46853 -0.657697,2.22655 -1.481191,4.39764 -2.339999,6.55268 -1.351866,3.39236 -4.569849,2.49775 -4.10168,-0.4637 -0.145049,-0.0991 -0.174774,-0.33224 -0.288249,-0.47622 -0.843527,2.93715 -4.253649,5.48514 -10.201399,5.38537 -0.873242,-0.0138 -1.7476,-0.0278 -2.619269,-0.086 -0.606707,-0.0436 -1.211254,-0.10391 -1.810044,-0.19333 v 2.46533 c 0,1.33071 -0.131721,2.52939 -0.36702,3.60218 H 661.15 V -720.87525 Z M 236.43833,-9.4162253 c 22.48366,-0.477482 41.89147,12.449604 45.06486,38.5999013 0.14092,1.378502 0.27666,2.760856 0.50128,4.128551 0.39632,2.563363 1.28194,5.593235 1.43048,7.882884 0.34923,1.720133 0.85059,3.377476 1.64534,4.978983 -1.98565,-3.643727 -5.80582,-7.787789 -10.80117,-11.152097 -3.9938,-1.691654 -7.7846,-4.005964 -11.93088,-5.231412 4.11938,8.945608 8.29785,18.075036 12.57901,25.344186 1.42219,-2.715746 2.47365,-5.608733 3.09908,-8.629462 0.003,-0.02417 0.006,-0.04538 0.011,-0.0682 -0.0267,0.347625 -0.66383,-7.159732 0.12355,-1.953267 0.0903,0.658704 0.1857,1.317455 0.27214,1.97655 0.078,0.27231 0.0229,0.06201 0.29718,1.038394 1.74794,6.218836 2.86681,12.09479 3.45003,17.620616 7.42445,7.419358 15.19393,5.777558 23.49293,-15.635133 0.23558,-0.607566 0.75865,-2.471906 0.7054,-1.822584 -0.13963,1.70365 -1.04124,3.255029 -1.59163,4.873356 -1.14902,3.378302 -2.46513,6.687484 -3.70242,10.033079 -0.88371,2.3318 -1.62047,4.715029 -2.33284,7.104097 -0.30385,7.257473 -2.30761,13.342303 -5.49815,20.182603 -1.10651,2.37219 -2.85652,4.38762 -4.28431,6.5813 -2.6743,2.68305 -5.06987,5.67615 -8.02255,8.04943 -3.33546,2.68095 -7.10495,4.86518 -11.11624,6.51149 -20.70039,21.80397 -60.50664,12.4928 -74.09713,-40.490491 -1.1143,-4.343942 -2.412,-8.658809 -2.73387,-13.164431 -0.7218,-4.791209 -1.26609,-9.635913 -0.93992,-14.485711 0.17163,-3.289717 0.42026,-6.579005 0.9041,-9.839754 1.40641,-7.952434 3.83027,-15.652247 8.38242,-22.415154 5.96807,-8.8002412 13.48703,-16.7857023 25.30656,-18.9919823 3.29908,-0.615862 6.5742,-0.957676 9.78603,-1.025896 z M 151.26972,284.18111 c 0.85466,1.9e-4 1.52719,0.86741 1.71337,2.2612 0.79204,0.31285 1.44069,1.28971 1.40361,2.93079 -0.0346,1.53316 0.23518,3.04037 0.59262,4.52599 0.24624,0.55668 0.42461,1.14053 0.68212,1.69188 0.73427,1.55703 1.39939,3.14642 2.11797,4.71042 0.48176,0.93599 0.91406,1.8943 1.41975,2.81801 0.29819,0.53687 0.53145,1.10474 0.75912,1.67396 1.5061,3.76579 -2.30829,5.28733 -3.80628,1.51823 -0.049,-0.12334 -0.11271,-0.24045 -0.16294,-0.36342 -0.80612,-0.10509 -1.67665,-0.79019 -2.21108,-2.2093 -0.86149,-2.28771 -1.62156,-4.6118 -2.28628,-6.96444 -0.15254,-0.57364 -0.3032,-1.1507 -0.44401,-1.72951 -0.53119,-1.23484 -1.12024,-2.44751 -1.48241,-3.74539 -0.31296,-1.34079 -0.56832,-2.69756 -0.50308,-4.08199 0.0955,-2.02572 1.17749,-3.03682 2.20751,-3.03643 z m -25.82935,3.30495 h 2.01594 2.12872 0.41178 c 2.73208,0 3.46245,1.81237 2.51365,3.02569 1.89819,0.51771 2.17812,2.16621 1.04733,3.15639 -0.41459,0.67061 -1.34255,1.19236 -2.78935,1.19236 h -0.92918 -4.71936 -4.15002 c -1.33194,0 -2.22305,-0.44319 -2.68017,-1.03659 -1.56243,-1.14398 -0.82817,-3.46969 2.23438,-3.46969 h 2.31849 c -0.76328,-1.21021 -0.0211,-2.86816 2.59779,-2.86816 z m 53.70685,1.22818 h 5.7846 8.09059 c 4.05587,0 4.05587,4.09814 0,4.09814 h -8.09059 -5.7846 c -4.05583,0 -4.05583,-4.09814 0,-4.09814 z" />
    <path
       id="path95"
       d="m 137.15282,70.930992 c 0.20053,0 0.39389,-0.01384 0.58723,-0.04288 0.18979,-0.02077 0.37598,-0.04288 0.5586,-0.0717 V 69.11199 c -0.17188,0.02077 -0.32584,0.03575 -0.45833,0.04298 -0.12531,0.01095 -0.27213,0.01385 -0.44402,0.01385 -0.64092,0 -1.09927,-0.157634 -1.37496,-0.472663 -0.26855,-0.314927 -0.40106,-0.834293 -0.40106,-1.56119 v -7.018139 h 2.67837 v -1.647139 h -2.67837 v -3.208302 h -2.0768 v 3.208302 h -1.93356 v 1.647142 h 1.93356 v 7.50512 c 0,1.174477 0.28645,2.019502 0.85937,2.535136 0.5729,0.515623 1.48957,0.773425 2.74997,0.773425 z m 8.43254,0.114653 c 1.17447,0 2.18422,-0.25776 3.03644,-0.773445 0.84862,-0.515603 1.50389,-1.249664 1.96222,-2.205705 0.46547,-0.952469 0.7018,-2.091123 0.7018,-3.40883 v -0.01382 c 0,-1.324866 -0.23631,-2.467093 -0.7018,-3.423164 -0.45833,-0.952473 -1.1136,-1.68293 -1.96222,-2.191394 -0.85222,-0.515579 -1.86197,-0.773418 -3.03644,-0.773418 -1.1673,0 -2.17706,0.257765 -3.03644,0.773418 -0.85218,0.508464 -1.51104,1.238921 -1.97653,2.191394 -0.45834,0.956071 -0.6875,2.098298 -0.6875,3.423164 v 0.01382 c 0,1.317707 0.22919,2.456361 0.6875,3.40883 0.46549,0.956041 1.12435,1.690102 1.97653,2.205705 0.85938,0.515613 1.86914,0.773445 3.03644,0.773445 z m 0,-1.761712 c -0.77343,0 -1.43228,-0.179124 -1.97654,-0.544274 -0.54428,-0.372372 -0.95963,-0.902338 -1.2461,-1.589804 -0.28644,-0.687505 -0.42966,-1.518232 -0.42966,-2.49219 v -0.01382 c 0,-0.98112 0.1432,-1.819014 0.42966,-2.506486 0.28645,-0.687506 0.70182,-1.2103 1.2461,-1.57553 0.54426,-0.361627 1.20311,-0.54424 1.97654,-0.54424 0.78058,0 1.43945,0.182573 1.97655,0.54424 0.54425,0.354497 0.95963,0.880863 1.24607,1.57553 0.28645,0.687472 0.4297,1.525366 0.4297,2.506486 v 0.01382 c 0,0.973958 -0.14324,1.804685 -0.4297,2.49219 -0.28644,0.687466 -0.70182,1.217432 -1.24607,1.589804 -0.5371,0.365233 -1.19597,0.544274 -1.97655,0.544274 z m 0,0"
       style="fill:#000000;fill-opacity:0;fill-rule:nonzero;stroke:none;stroke-width:1.30769"
       aria-label="to" />
    <path
       id="path96"
       d="m 13.074578,118.4504 c 0.780589,0 1.482407,-0.12886 2.105448,-0.3867 0.630202,-0.26503 1.124335,-0.63381 1.489566,-1.10286 0.361652,-0.4655 0.544267,-1.00979 0.544267,-1.6328 v -0.0138 c 0,-0.49413 -0.107438,-0.92022 -0.3151,-1.27471 -0.211266,-0.35091 -0.52994,-0.65169 -0.959623,-0.90234 -0.422525,-0.25777 -0.956048,-0.46193 -1.604152,-0.61589 l -1.604153,-0.37236 c -0.401035,-0.10395 -0.730462,-0.22212 -0.988271,-0.35815 -0.250661,-0.13233 -0.436842,-0.28997 -0.558586,-0.47263 -0.125314,-0.17912 -0.186185,-0.3867 -0.186185,-0.61589 v -0.0138 c 0,-0.30454 0.08952,-0.57292 0.27214,-0.80208 0.189787,-0.22934 0.444007,-0.40821 0.759106,-0.54427 0.322272,-0.13234 0.691076,-0.20059 1.102857,-0.20059 0.619461,0 1.124336,0.12888 1.518211,0.38671 0.390298,0.25776 0.637365,0.58723 0.744786,0.9883 h 1.647119 c -0.07878,-0.55146 -0.286448,-1.03484 -0.630202,-1.44663 -0.343751,-0.41893 -0.798496,-0.74478 -1.360665,-0.97394 -0.555003,-0.229 -1.188789,-0.34369 -1.904929,-0.34369 -0.737622,0 -1.39647,0.13614 -1.976544,0.40105 -0.57291,0.25776 -1.031239,0.61587 -1.3749871,1.07422 -0.3365791,0.45115 -0.5012964,0.95961 -0.5012964,1.53253 v 0.0138 c 0,0.48697 0.100271,0.91308 0.3007894,1.27472 0.2005287,0.36525 0.5048761,0.66961 0.9166571,0.91666 0.418942,0.2401 0.948885,0.44042 1.58983,0.60155 l 1.604151,0.3724 c 0.637365,0.15384 1.09569,0.35449 1.374988,0.60154 0.286448,0.25084 0.429683,0.55147 0.429683,0.90235 v 0.0138 c 0,0.31493 -0.107438,0.59439 -0.3151,0.8307 -0.200527,0.23975 -0.479814,0.42971 -0.830724,0.57292 -0.354487,0.13618 -0.766267,0.2006 -1.231759,0.2006 -0.658848,0 -1.195949,-0.12888 -1.604151,-0.38671 -0.411778,-0.26498 -0.683914,-0.61583 -0.816398,-1.0455 H 9.0069409 c 0.057301,0.57289 0.261398,1.07061 0.6158782,1.48952 0.3616525,0.42255 0.8343029,0.75195 1.4179549,0.98831 0.590817,0.229 1.267569,0.34367 2.033838,0.34367 z m 10.634662,0 c 0.601555,0 1.145822,-0.0785 1.632798,-0.22899 0.494136,-0.16111 0.920237,-0.37597 1.274725,-0.64451 0.36165,-0.26504 0.651686,-0.56219 0.873691,-0.88804 0.229179,-0.3222 0.386715,-0.66241 0.472652,-1.0169 l 0.02875,-0.086 h -1.675764 l -0.02875,0.086 c -0.09669,0.21134 -0.257796,0.41537 -0.486975,0.61586 -0.222007,0.19332 -0.501297,0.35448 -0.845041,0.48698 -0.34375,0.12539 -0.751947,0.18639 -1.217438,0.18639 -0.62304,0 -1.167307,-0.13616 -1.632796,-0.41538 -0.45833,-0.27578 -0.812818,-0.67315 -1.059888,-1.18878 -0.250659,-0.5228 -0.372392,-1.153 -0.372392,-1.89063 v -0.6588 c 0,-0.77347 0.128915,-1.42158 0.386716,-1.94791 0.257794,-0.53354 0.601556,-0.9346 1.031242,-1.20314 0.436843,-0.27578 0.93814,-0.41536 1.503893,-0.41536 0.551424,0 1.04556,0.12889 1.475242,0.38671 0.429685,0.25777 0.76269,0.65169 1.002599,1.17448 0.236314,0.52637 0.358065,1.19597 0.358065,2.00522 v 0.6588 l 0.830724,-1.21744 H 19.82777 v 1.33205 h 8.278566 v -0.65884 c 0,-1.02053 -0.182614,-1.91927 -0.544268,-2.69271 -0.354487,-0.78056 -0.870105,-1.38929 -1.546857,-1.819 -0.669591,-0.43685 -1.475249,-0.65884 -2.420548,-0.65884 -0.927401,0 -1.74022,0.22901 -2.434876,0.68749 -0.698236,0.45117 -1.238921,1.08139 -1.618475,1.8906 -0.383132,0.80209 -0.572909,1.73308 -0.572909,2.79297 v 0.0138 c 0,1.08139 0.189787,2.01952 0.572909,2.82159 0.379554,0.79491 0.923822,1.41078 1.6328,1.84764 0.705397,0.42968 1.550438,0.64455 2.535132,0.64455 z m 10.899636,0 c 0.601557,0 1.145822,-0.0785 1.632797,-0.22899 0.494135,-0.16111 0.920238,-0.37597 1.274726,-0.64451 0.36165,-0.26504 0.651687,-0.56219 0.87369,-0.88804 0.229179,-0.3222 0.386714,-0.66241 0.472648,-1.0169 l 0.02875,-0.086 h -1.675759 l -0.02875,0.086 c -0.09669,0.21134 -0.257795,0.41537 -0.486973,0.61586 -0.222008,0.19332 -0.501296,0.35448 -0.845046,0.48698 -0.34375,0.12539 -0.751945,0.18639 -1.217433,0.18639 -0.623041,0 -1.167309,-0.13616 -1.6328,-0.41538 -0.458327,-0.27578 -0.812815,-0.67315 -1.059883,-1.18878 -0.25066,-0.5228 -0.372395,-1.153 -0.372395,-1.89063 v -0.6588 c 0,-0.77347 0.128916,-1.42158 0.386716,-1.94791 0.257796,-0.53354 0.601557,-0.9346 1.031243,-1.20314 0.436843,-0.27578 0.93814,-0.41536 1.503892,-0.41536 0.551425,0 1.04556,0.12889 1.475243,0.38671 0.429686,0.25777 0.762689,0.65169 1.002594,1.17448 0.236317,0.52637 0.35807,1.19597 0.35807,2.00522 v 0.6588 l 0.830723,-1.21744 h -7.433525 v 1.33205 h 8.278571 v -0.65884 c 0,-1.02053 -0.182616,-1.91927 -0.544268,-2.69271 -0.354487,-0.78056 -0.870108,-1.38929 -1.54686,-1.819 -0.669589,-0.43685 -1.475247,-0.65884 -2.420547,-0.65884 -0.927402,0 -1.740223,0.22901 -2.434876,0.68749 -0.698235,0.45117 -1.238921,1.08139 -1.618474,1.8906 -0.383132,0.80209 -0.572913,1.73308 -0.572913,2.79297 v 0.0138 c 0,1.08139 0.189788,2.01952 0.572913,2.82159 0.379553,0.79491 0.923821,1.41078 1.632796,1.84764 0.705396,0.42968 1.550442,0.64455 2.535132,0.64455 z m 10.502179,0 c 0.476226,0 0.916651,-0.0717 1.317691,-0.21479 0.408202,-0.15036 0.773432,-0.36162 1.088532,-0.6302 0.322275,-0.27577 0.590813,-0.60512 0.802079,-0.98826 h 0.157528 v 1.64711 h 1.661446 v -14.42304 h -1.661446 v 5.72915 h -0.157528 c -0.182613,-0.37241 -0.436848,-0.69113 -0.759108,-0.95964 -0.325839,-0.26506 -0.698233,-0.47624 -1.117172,-0.63023 -0.422526,-0.15034 -0.866534,-0.22898 -1.332022,-0.22898 -0.880851,0 -1.643543,0.22208 -2.291646,0.65884 -0.651686,0.44045 -1.156565,1.05992 -1.518214,1.86197 -0.354491,0.80209 -0.529942,1.7438 -0.529942,2.8216 v 0.0138 c 0,1.07064 0.175444,2.00519 0.529942,2.80726 0.361649,0.80208 0.866528,1.42871 1.518214,1.87628 0.658848,0.44042 1.421535,0.65886 2.291646,0.65886 z m 0.372392,-1.47525 c -0.623043,0 -1.160147,-0.15036 -1.618472,-0.45832 -0.451165,-0.31494 -0.794918,-0.75913 -1.031244,-1.33202 -0.239919,-0.58006 -0.35807,-1.27473 -0.35807,-2.07683 v -0.0138 c 0,-0.80925 0.118172,-1.50389 0.35807,-2.0768 0.236319,-0.57291 0.580079,-1.00975 1.031244,-1.31771 0.458325,-0.31493 0.995429,-0.47264 1.618472,-0.47264 0.6302,0 1.167304,0.15765 1.618474,0.47264 0.458328,0.31492 0.805657,0.75911 1.045563,1.33201 0.247054,0.57293 0.372392,1.26043 0.372392,2.0625 v 0.0138 c 0,0.79492 -0.125313,1.48241 -0.372392,2.06248 -0.239919,0.57293 -0.587235,1.01696 -1.045563,1.33205 -0.45117,0.31494 -0.988274,0.47264 -1.618474,0.47264 z m 0,0"
       style="fill:#000000;fill-opacity:0;fill-rule:nonzero;stroke:none;stroke-width:1.30769"
       aria-label="seed" />
    <path
       id="path99"
       clip-path="url(#clipPath100)"
       style="display:inline;fill:#000000;fill-opacity:1;fill-rule:nonzero;stroke:none"
       transform="matrix(1.2222105,0,0,-1.2222105,-49.236681,378.76566)"
       d="m 152.10498,308.11457 c -5.73644,0 -11.11131,-1.54622 -15.73095,-4.24512 -9.26994,-5.41564 -15.49805,-15.47188 -15.49805,-26.98242 0,-5.73644 1.54758,-11.11278 4.24658,-15.73242 4.74995,-8.13048 13.0708,-13.9147 22.81055,-15.21534 V 226.65754 L 93.455569,187.34113 78.183107,223.9798 c -0.0015,0.79197 -0.126653,1.60176 -0.493652,2.39356 -0.542854,1.1709 -1.39161,1.99341 -2.115234,2.55761 -0.60336,0.4702 -1.38788,0.95401 -2.405274,0.82471 -0.546094,-0.0693 -1.115605,-0.3515 -1.505859,-0.7793 l -0.328125,-0.42187 h -0.960938 -1.508789 -3.46875 -5.458008 c -0.388754,0.0356 -0.798663,0.0705 -1.168945,0.10254 -1.357504,0.1173 -2.940626,0.16994 -4.3667,0.0483 -0.787794,-0.0669 -1.612181,-0.1882 -2.384765,-0.646 -0.1598,-0.0947 -0.639909,-0.19154 -1.045899,-0.90234 -0.655614,-1.1492 -0.115264,-2.14107 0.51709,-2.78467 0.729044,-0.7414 1.500857,-0.65451 2.094727,-0.63281 l 1.584961,0.13037 c 1.278889,0.0823 2.699503,0.0236 4.078125,0.0395 -0.01934,-0.0306 -0.02171,-0.0187 -0.04102,-0.0513 -0.30331,-0.5116 -0.621147,-1.17033 -0.829101,-1.98193 -0.19695,-0.7686 -0.260207,-1.58121 -0.262207,-2.35401 -0.0026,-0.9769 0.256599,-1.82992 0.527343,-2.51806 l 0.344239,-0.81739 0.325195,-0.81592 0.244629,-0.45849 0.328125,-0.50244 c 0.878334,-1.0449 1.968299,-0.89298 2.588379,-0.95948 0.572444,-0.0615 1.367104,-0.28597 2.452148,-0.33837 0.651428,-0.0314 1.302162,0.021 1.930664,0.12451 0.179427,-0.0547 0.363271,-0.13795 0.525879,-0.16553 0.60062,-0.1018 1.255435,-0.0798 1.980469,0.0337 l 1.40332,0.3457 1.570313,0.60352 c 0.812094,0.3689 1.574316,0.83373 2.286621,1.30518 0.08584,0.006 0.170083,-0.007 0.256348,0.0161 0.418869,0.112 0.716029,0.42001 0.868652,0.79248 l 0.578614,0.43506 0.692871,0.62256 0.298828,0.38525 0.408691,0.53174 13.914551,-33.38086 c 0.0206,-0.0494 0.06081,-0.0819 0.08643,-0.12744 0.02538,-0.0456 0.03168,-0.0972 0.06299,-0.14063 0.02257,-0.0313 0.05734,-0.046 0.08203,-0.0747 0.06158,-0.0718 0.128091,-0.13118 0.202148,-0.1875 0.06563,-0.0501 0.129618,-0.0953 0.202148,-0.13184 0.07733,-0.0392 0.155281,-0.0658 0.23877,-0.0894 0.08272,-0.0233 0.16197,-0.0427 0.247559,-0.0498 0.08254,-0.007 0.162303,-9.9e-4 0.246093,0.009 0.09165,0.009 0.178901,0.024 0.268067,0.0527 0.03592,0.0115 0.07294,0.007 0.108398,0.022 0.04876,0.0203 0.081,0.0597 0.125977,0.085 0.04618,0.0256 0.0982,0.0328 0.14209,0.0645 L 147.93311,223.3675 V 163.92414 L 118.12354,67.333802 h -0.11719 c 0.29909,-0.722547 0.0691,-1.539492 -0.65039,-2.1167 -0.006,-0.0204 -0.0116,-0.04113 -0.0176,-0.06152 -0.0483,-0.163566 -0.099,-0.326401 -0.14941,-0.489258 h 1.92041 c 0.0229,0 0.0418,0.01204 0.0644,0.01318 0.0956,0.0047 0.18294,0.02964 0.27393,0.0542 0.079,0.02123 0.15753,0.03567 0.22998,0.07031 0.0758,0.03605 0.13867,0.08804 0.20654,0.137696 0.0705,0.05175 0.14171,0.09828 0.20068,0.162597 0.0534,0.05798 0.0889,0.128506 0.13184,0.19629 0.0509,0.08029 0.10175,0.156859 0.13477,0.247558 0.008,0.02157 0.0254,0.0364 0.0322,0.05859 l 28.62891,92.762695 18.40137,-88.935058 c 1.042,-0.797054 1.09857,-1.969706 0.36328,-2.771485 0.0442,-0.09516 0.0882,-0.190245 0.13183,-0.285644 h 1.22315 c 0.0472,0 0.0874,0.02159 0.1333,0.02637 0.0466,0.0046 0.0909,-0.0082 0.13769,0.0015 0.0449,0.0093 0.0788,0.03781 0.12159,0.05127 0.0861,0.02696 0.16408,0.06104 0.2417,0.104004 0.0764,0.0421 0.14528,0.08689 0.21093,0.14209 0.0657,0.055 0.12175,0.113663 0.17578,0.180176 0.0527,0.06494 0.098,0.130021 0.1377,0.203613 0.0415,0.07647 0.0721,0.154199 0.0981,0.23877 0.0265,0.08523 0.0439,0.16893 0.0527,0.259277 0.004,0.04395 0.0249,0.08234 0.0249,0.127441 0,0.04782 -0.0215,0.08825 -0.0264,0.134766 -0.005,0.0457 0.008,0.0888 -0.001,0.134766 l -19.83838,95.875484 v 4.18506 l 37.42822,13.55127 c 0.093,0.0337 0.16287,0.0971 0.24317,0.14795 0.0622,0.039 0.13221,0.0594 0.18896,0.10986 0.003,0.003 0.004,0.006 0.007,0.009 0.13028,0.11797 0.2362,0.25839 0.31054,0.41455 v 0.001 c 0.073,0.15372 0.11717,0.3213 0.12744,0.49365 v 0.001 c 0.003,0.05 -0.0177,0.1003 -0.0205,0.15088 -0.007,0.12485 -0.0135,0.24943 -0.0557,0.36914 -0.001,0.003 -0.001,0.006 -0.001,0.009 -0.0236,0.0651 -0.0718,0.11095 -0.10401,0.16993 -0.0481,0.089 -0.0823,0.18328 -0.15234,0.2622 l -37.97168,42.74708 v 19.2788 c 0.50425,-0.0242 0.99415,-0.10107 1.50439,-0.10107 5.7365,0 11.11132,1.54622 15.73096,4.24512 9.27004,5.41575 15.49805,15.47339 15.49805,26.98388 0,5.73649 -1.54764,11.11121 -4.24658,15.73096 -5.4157,9.26994 -15.47189,15.49658 -26.98243,15.49658 z m 0,-2.66748 c 10.52824,0 19.72635,-5.69675 24.67969,-14.17529 2.468,-4.2246 3.88184,-9.13933 3.88184,-14.38477 0,-10.52824 -5.69812,-19.72629 -14.17676,-24.67969 -4.2245,-2.468 -9.13917,-3.88183 -14.38477,-3.88183 -10.52824,0 -19.72634,5.69665 -24.67968,14.17529 -2.4681,4.22444 -3.88184,9.14063 -3.88184,14.38623 0,10.52824 5.69675,19.72488 14.17529,24.67822 4.2245,2.4681 9.14079,3.88184 14.38623,3.88184 z m -1.50439,-82.98194 34.66992,-39.03222 -34.66992,-12.55518 z" />
    <path
       id="path105"
       clip-path="url(#clipPath106)"
       style="fill:#000000;fill-opacity:1;fill-rule:nonzero;stroke:none"
       transform="matrix(1.2222105,0,0,-1.2222105,-49.236684,377.41799)"
       d="m 141.10858,290.69866 -2.19727,-0.0293 -1.25976,-0.15088 c -0.2669,-0.0619 -0.44192,0.17992 -1.11182,-0.58448 -0.3141,-0.3584 -0.35044,-1.62458 0.11866,-2.04638 0.23208,-0.2087 0.40853,-0.26765 0.53613,-0.31055 0.43289,-0.14553 0.88298,-0.0678 1.23779,0.16406 l 0.65772,0.0689 1.06201,0.0132 c -0.0266,-0.0451 -0.0554,-0.079 -0.0806,-0.1289 -0.0551,-0.10919 -0.48281,-0.32244 -0.32226,-1.34619 -0.33184,-0.23895 -0.8599,-0.80686 -0.65772,-1.66114 0.0624,-0.26355 0.17502,-0.4657 0.30908,-0.62841 0.0289,-0.1417 0.0837,-0.49295 0.33545,-0.90235 0.4936,-0.8035 1.06955,-0.97046 1.27735,-1.10596 0.2421,-0.1579 0.57095,-0.40002 1.08105,-0.52002 0.2849,-0.0668 0.64133,-0.12486 1.04883,-0.10546 0.518,0.0247 0.96741,0.15202 1.35791,0.30322 0.1859,0.072 0.53093,0.20818 0.86133,0.47168 0.3924,0.3125 0.67138,0.64958 0.90088,0.95068 0.2676,0.3512 0.35446,0.68489 0.38086,0.76319 l 0.16113,0.70605 c 0.38107,0.36529 0.54858,0.92429 0.37939,1.46191 -0.0877,0.2789 -0.25293,0.51149 -0.46435,0.68262 -0.0418,0.14285 -0.0925,0.29218 -0.17139,0.45264 -0.19918,0.40533 -0.43386,0.62171 -0.60205,0.76465 -0.0548,0.15136 -0.1196,0.23215 -0.15967,0.2915 l -0.15967,0.19922 -0.28418,0.24463 -0.29004,0.21972 -0.48779,0.48633 c -0.4398,0.4142 -1.17028,1.14606 -2.37158,1.26856 z m -2.99853,-0.40283 c -0.0599,0.0201 0.35012,-0.17469 0.24462,-0.11279 -0.0776,0.0436 -0.16009,0.0819 -0.24755,0.11133 z m 24.72509,-0.44385 c -0.0949,0.008 -0.19176,0.007 -0.29004,-0.004 l 0.001,10e-4 c -0.3025,-0.0351 -0.45881,-0.0127 -0.87891,-0.19629 -0.1781,-0.0778 -0.7935,-0.14562 -0.8833,-1.21582 -0.0542,-0.6466 0.35278,-1.11244 0.58008,-1.28174 0.4845,-0.36068 0.60962,-0.27436 0.73682,-0.29296 l 0.42773,-0.0308 0.41162,0.0352 c -0.0535,-0.18892 -0.0675,-0.34286 -0.0864,-0.4248 l -0.10547,-1.09278 c 0.001,-0.0321 -0.10398,-0.36732 0.0308,-0.99902 0.1187,-0.5569 0.36431,-0.82443 0.44531,-0.94483 0.0251,-0.0372 0.0542,-0.0652 0.0806,-0.0996 0.009,-0.0614 0.0154,-0.12055 0.0293,-0.18604 0.11853,-0.55889 0.7279,-1.21929 1.44726,-1.35791 0.67388,-0.6332 1.4555,-0.54501 1.97022,-0.45557 0.435,0.0752 0.84742,0.27249 1.20117,0.54493 0.74017,0.35257 1.18118,0.90661 1.52929,1.31835 0.4624,0.5468 0.81232,1.1314 1.00342,1.7754 0.1465,0.494 0.23362,1.13816 -0.0835,1.79736 -0.52177,1.08466 -1.45423,1.29242 -2.24268,1.34619 -0.0879,0.0334 -0.17444,0.0607 -0.26074,0.082 -0.063,0.0268 -0.12153,0.0497 -0.18311,0.0718 -0.31874,0.31036 -0.71062,0.63703 -1.19824,0.91553 -0.4182,0.2388 -0.93501,0.54525 -1.67871,0.62255 l -0.59766,0.009 -1.03271,-0.0278 c -0.11928,0.0446 -0.24302,0.0795 -0.37354,0.0908 z" />
    <path
       id="path99-6"
       clip-path="url(#clipPath100-0)"
       style="display:inline;fill:#000000;fill-opacity:1;fill-rule:nonzero;stroke:none"
       transform="matrix(-1.290311,0,0,-1.3123087,409.38534,409.19979)"
       d="m 217.3677,274.61011 c 0.6451,0.122 1.48227,-0.38344 1.73997,-0.87314 0.29085,-0.55254 0.13684,-1.20045 -0.30803,-1.59892 0.0153,-0.0508 0.0635,-0.13251 0.0721,-0.16508 0.0215,-0.0815 -0.003,-0.0998 0.0111,-0.17053 0.0125,-0.0863 0.018,-0.16256 0.0166,-0.24148 0.0481,-0.52301 -0.0729,-0.81554 -0.22201,-1.26468 l -0.48147,-1.34654 c -0.22008,-0.58374 -0.44927,-1.00692 -0.6674,-1.41884 -0.34889,-1.00632 -0.7734,-2.17059 -1.68308,-3.41342 -0.5166,-0.70578 -1.1366,-1.34199 -1.6803,-1.90179 -0.3868,-0.398 -0.86243,-1.01125 -1.82183,-1.20875 -0.6053,-0.1246 -1.05969,-0.0716 -1.35839,-0.0846 l -1.35701,0.004 c -1.1389,0.0962 -2.10738,0.36298 -3.04008,0.70396 -0.65704,0.24024 -1.34201,0.5635 -2.01054,0.93453 -0.30678,0.0438 -0.60248,0.17996 -0.82141,0.43248 -0.0226,0.026 -0.0416,0.0657 -0.0638,0.0928 -0.95437,0.67538 -1.77192,1.54648 -2.20201,2.70399 -0.0803,0.21604 -0.29343,0.48424 -0.3788,0.87313 -0.27025,0.22387 -0.50965,0.4959 -0.69099,0.84721 -0.3379,0.6547 -0.0816,1.45885 0.57305,1.79675 0.62646,0.32338 1.37927,0.0913 1.73996,-0.50205 0.4656,0.0176 0.92834,-0.1248 1.26543,-0.33834 0.85808,-0.037 1.92303,0.083 2.93741,0.24693 1.4729,0.2382 2.62577,0.49644 3.80877,0.80492 l 1.69973,0.47614 c 0.459,0.1666 0.78679,0.29669 1.09337,0.53479 l 0.81865,0.93316 0.85333,1.14599 c 0.2892,0.4291 0.61025,0.92973 1.06285,1.37383 0.2339,0.2295 0.50886,0.51277 1.09476,0.62347 z" />
    <path
       id="path99-4"
       clip-path="url(#clipPath100-23)"
       style="display:inline;fill:#000000;fill-opacity:1;fill-rule:nonzero;stroke:none"
       transform="matrix(1.2222105,0,0,-1.2222105,-18.709402,377.23842)"
       d="m 143.30855,69.044299 c -0.54769,0 -1.00355,-0.337934 -1.2085,-0.810059 0.0306,-0.12815 0.0602,-0.256034 0.0923,-0.383789 0.15655,-0.350137 0.31387,-0.700052 0.47608,-1.047363 0.0518,-0.109917 0.10129,-0.220775 0.15234,-0.331055 0.15123,-0.05952 0.3155,-0.09521 0.4878,-0.09521 h 25.82373 c 0.0472,0 0.0874,0.02159 0.1333,0.02637 0.0466,0.0046 0.0909,-0.0082 0.13769,0.0015 0.0449,0.0093 0.0788,0.03781 0.12159,0.05127 0.0861,0.02696 0.16407,0.06104 0.24169,0.104004 0.0764,0.0421 0.14529,0.08689 0.21094,0.142089 0.0657,0.055 0.12175,0.113663 0.17578,0.180176 0.0527,0.06494 0.098,0.130028 0.1377,0.203613 0.0415,0.07647 0.0721,0.154199 0.0981,0.23877 0.0265,0.08523 0.0439,0.16893 0.0527,0.259277 0.004,0.04395 0.0249,0.08234 0.0249,0.127442 0,0.04782 -0.0215,0.08825 -0.0264,0.134765 -0.005,0.0457 0.008,0.0888 -0.001,0.134766 l -0.16114,0.774902 c -0.18413,0.04279 -0.47055,0.07683 -0.62255,0.121582 1.30685,0.05078 0.64566,0.01098 -1.63184,0.08936 -0.60036,0.02064 -1.20007,0.05476 -1.80029,0.07764 z m -25.16456,-1.643555 -0.0205,-0.06738 H 93.3354 c -0.125625,0 -0.245319,-0.02016 -0.360351,-0.05273 -0.172437,-0.743614 -0.38354,-1.479875 -0.596192,-2.208985 0.242221,-0.249861 0.580699,-0.405761 0.956543,-0.405761 h 25.77393 c 0.0229,0 0.0418,0.01204 0.0644,0.01318 0.0956,0.0047 0.18294,0.02964 0.27393,0.0542 0.079,0.02123 0.15753,0.03567 0.22998,0.07031 0.0758,0.03605 0.13867,0.08804 0.20654,0.137695 0.0705,0.05175 0.14171,0.09828 0.20068,0.162598 0.0534,0.05798 0.0889,0.128505 0.13184,0.196289 0.0509,0.08029 0.10174,0.156866 0.13476,0.247558 0.008,0.02157 0.0254,0.0364 0.0322,0.05859 l 0.55371,1.794434 z" />
  </g>
</svg>
