<?xml version="1.0" encoding="UTF-8" standalone="no"?>
<!-- Created with Inkscape (http://www.inkscape.org/) -->

<svg
   width="110.90187mm"
   height="267.55994mm"
   viewBox="0 0 110.90187 267.55994"
   version="1.1"
   id="svg1"
   xml:space="preserve"
   xmlns="http://www.w3.org/2000/svg"
   xmlns:svg="http://www.w3.org/2000/svg"><defs
     id="defs1" /><g
     id="layer1"
     transform="translate(-49.043821,-14.497822)"><g
       id="g1"
       transform="matrix(0.26458333,0,0,0.26458333,47.676643,11.991542)"><path
         fill="#60c5dc"
         opacity="1"
         stroke="none"
         d="m 356.86609,967.05542 c 1.71762,7.02228 3.37811,13.63135 4.98755,20.25281 0.85116,3.50177 1.18554,7.02478 5.06289,9.16101 1.10022,0.60614 1.49686,5.46416 0.76438,5.89306 -2.77378,1.6243 -6.10349,2.8278 -9.30234,3.0429 -2.94787,0.1983 -5.97885,-1.5185 -9.00052,-1.6263 -19.05643,-0.6798 -37.93423,0.5973 -56.33362,6.0782 -2.6969,0.8035 -5.35559,1.7768 -7.95434,2.8579 -3.29502,1.371 -6.05899,0.8631 -7.48874,-2.4787 -1.40564,-3.2855 0.33563,-5.646 3.50973,-6.4765 10.27976,-2.6901 20.49344,-6.07938 30.96271,-7.48307 12.48053,-1.67334 25.19916,-1.56842 37.81378,-2.2492 0.97574,-0.0527 1.94492,-0.22687 3.7844,-0.44953 -35.23673,-141.82391 -70.40409,-283.36853 -105.57143,-424.91314 -0.34396,0.0224 -0.68791,0.0449 -1.03188,0.0673 -1.36907,10.56933 -2.7521,21.1369 -4.10435,31.70837 -2.88821,22.57904 -5.80351,45.15485 -8.62727,67.74201 -2.86612,22.92572 -5.59774,45.86822 -8.458,68.79474 -2.77675,22.2572 -5.67927,44.49877 -8.45758,66.75579 -2.59395,20.78009 -5.05247,41.57715 -7.65208,62.35651 -3.03186,24.23468 -6.18663,48.45386 -9.22373,72.68787 -2.62471,20.94342 -5.08966,41.9071 -7.78889,62.84075 -0.58252,4.5177 0.76448,6.3498 5.45753,6.4743 2.86115,0.076 6.05352,0.8857 8.43853,2.4019 3.09887,1.97 4.1786,5.4148 1.51849,8.6055 -2.36807,2.8403 -4.68251,1.3508 -7.78366,0.058 -4.8761,-2.0325 -10.48442,-2.9241 -15.82372,-3.1078 -13.11741,-0.4517 -26.25827,-0.2674 -39.38961,-0.2557 -10.33008,0.01 -20.66031,0.2174 -30.98991,0.1809 -3.63676,-0.013 -7.4487,-0.4739 -7.88458,-5.2271 -0.24943,-2.72 4.35812,-4.7615 8.56048,-4.74 22.42404,0.1152 44.84896,0.054 67.64723,0.054 1.15487,-8.40252 2.34649,-16.57024 3.38992,-24.75683 3.31976,-26.04632 6.62767,-52.09436 9.85727,-78.15198 2.84227,-22.9328 5.49567,-45.88903 8.3723,-68.81744 3.82587,-30.49451 7.84286,-60.96497 11.67326,-91.45892 3.16933,-25.2309 6.12462,-50.48865 9.28653,-75.72052 4.83632,-38.59369 9.81929,-77.16901 14.61098,-115.76813 0.79756,-6.4245 1.31863,-12.92993 1.32722,-19.39874 0.0928,-69.82715 0.0572,-139.65448 0.0568,-209.48175 -2e-5,-1.8281 0,-3.65619 0,-6.23203 -1.48352,1.34335 -2.55355,2.23154 -3.53276,3.21054 -57.03702,57.02411 -114.04991,114.07236 -171.18278,171.00025 -1.589867,1.5841 -4.98954,3.13208 -6.585919,2.45031 -1.746471,-0.74579 -3.271416,-4.06955 -3.361011,-6.33047 -1.647835,-41.58408 -3.019287,-83.17893 -4.560234,-124.76743 -0.471577,-12.72723 -1.27483,-25.4422 -1.939835,-38.4292 -9.124851,7.59766 -33.327496,6.70887 -40.366409,-2.58001 -4.339775,-5.72696 -5.809356,-11.35459 -2.806948,-18.09363 0.880317,-1.97589 1.44768,-4.50632 1.044785,-6.56461 -1.484643,-7.58459 1.597164,-13.08908 7.487754,-17.1445 6.34141,-4.36581 13.096505,-8.01104 21.807604,-6.9765 -0.903034,-6.89838 -2.187965,-13.22067 -2.431915,-19.58293 -0.233193,-6.08161 0.461773,-12.21967 1.048763,-18.30397 0.348755,-3.61495 2.544502,-7.01683 6.144211,-6.6991 2.769871,0.24449 6.230381,2.53122 7.780403,4.94107 5.370445,8.34969 7.432705,18.09453 6.676304,27.71277 -0.777897,9.89148 1.367718,19.34989 1.780983,29.02121 0.668037,15.63348 1.313251,31.26794 1.96022,46.90231 1.513779,36.58161 3.111435,73.1601 4.476425,109.74726 0.377579,10.12054 0.05746,20.26709 0.05746,30.4017 0.578499,0.15445 1.157005,0.3089 1.735504,0.46335 0.929047,-0.71497 1.951531,-1.33643 2.773804,-2.1582 56.460461,-56.431 112.910841,-112.87214 169.310381,-169.36399 1.19922,-1.2012 2.53561,-2.99106 2.55966,-4.52585 0.20342,-12.97937 0.11609,-25.96334 0.11609,-39.61551 C 202.265,256.554 170.57026,239.54734 148.05423,207.39955 125.6079,175.352 119.65177,139.87108 129.53798,102.23483 143.69702,48.331997 196.38954,1.760854 267.45251,10.542826 c 61.66965,7.621137 105.97114,58.474394 109.17197,117.813904 1.9321,35.81844 -9.70554,67.35387 -34.45035,93.37639 -24.55932,25.82741 -55.18725,38.73987 -91.58758,39.4252 0,3.83066 -2e-4,7.43052 6e-5,11.03037 2.3e-4,3.16638 0.46884,6.41602 -0.0771,9.4852 -2.80323,15.7583 4.27336,26.96341 14.43937,38.42499 35.22531,39.71432 69.48294,80.28656 104.13803,120.50717 17.4888,20.29742 35.08545,40.50229 52.48596,60.87488 1.54835,1.8128 3.2302,4.97506 2.62452,6.75207 -0.60456,1.77393 -3.87503,3.27811 -6.20386,3.7298 -35.91135,6.96475 -71.85639,13.75632 -107.80093,20.54928 -19.25656,3.63929 -38.5271,7.20466 -58.43367,10.92334 0.92694,4.08594 1.72254,7.91486 2.66685,11.70685 12.97775,52.11298 25.99274,104.21674 38.96448,156.3313 13.33264,53.56439 26.62976,107.13764 39.93899,160.70789 7.82297,31.48779 15.63925,62.97723 23.53687,94.87396 M 250.15292,319.92777 c 0,71.23519 0,142.47039 0,214.27981 53.96424,-10.19897 107.13776,-20.24847 161.01676,-30.4313 -27.06586,-31.48294 -53.40045,-62.14994 -79.77448,-92.78296 -23.01748,-26.73453 -46.04977,-53.45646 -69.15069,-80.11887 -3.86197,-4.45734 -8.10691,-8.58292 -12.52843,-12.70435 -0.0764,0.10209 -0.23706,0.26743 -0.21558,0.29606 0.14571,0.19415 0.32987,0.35943 0.65242,1.46161 M 232.05325,20.304779 c -6.28924,1.568537 -12.74397,2.660902 -18.84178,4.78027 -53.08403,18.449978 -84.72549,70.016697 -77.47179,125.930821 6.72915,51.87065 49.36174,94.67 101.06656,99.69063 47.47321,4.60974 85.6525,-12.85619 112.09589,-52.95906 C 383.05249,145.95653 368.62295,74.911766 317.46582,39.636684 291.87491,21.990654 263.55762,15.990536 232.05325,20.304779 Z"
         id="path2"
         style="fill:#000000;fill-opacity:1" /><path
         fill="#4ac0d9"
         opacity="1"
         stroke="none"
         d="m 249.89285,318.09137 c 0.17676,-0.0787 0.19625,0.4187 0.15274,0.66376 -0.21522,0.0705 -0.39938,-0.0948 -0.54509,-0.28897 -0.0215,-0.0286 0.13919,-0.19397 0.39235,-0.37479 z"
         id="path5"
         style="fill:#000000;fill-opacity:1" /><path
         fill="#60c6dc"
         opacity="1"
         stroke="none"
         d="m 217.66936,210.51501 c -0.78,-2.23622 -2.20156,-4.90882 -1.40012,-6.18101 0.88304,-1.40172 3.99419,-2.42807 5.81529,-2.0557 25.47621,5.20905 44.79572,-4.87771 60.28913,-24.1674 2.51446,-3.13061 3.43426,-7.49573 5.4693,-11.07523 1.21084,-2.12979 2.86355,-4.37423 4.90567,-5.50659 0.97815,-0.54234 4.40841,1.03368 4.79895,2.26313 0.62179,1.95736 0.0463,4.58592 -0.74356,6.65556 -7.37903,19.33499 -21.96381,31.44879 -40.65644,38.68799 -12.31814,4.77055 -25.23602,5.7223 -38.47822,1.37925 z"
         id="path6"
         style="fill:#000000;fill-opacity:1" /><path
         fill="#5ec5dc"
         opacity="1"
         stroke="none"
         d="m 189.99216,85.076378 c 6.97859,-0.802971 13.55673,-1.750664 20.1529,-1.899788 1.53463,-0.03469 4.21746,2.538315 4.3767,4.11322 0.14404,1.424629 -2.15114,3.868302 -3.88127,4.532166 -2.71366,1.041244 -5.85681,0.96315 -9.55976,1.458282 0,2.292557 0.25212,4.746826 -0.0483,7.131472 -0.82724,6.56547 -4.23342,11.56959 -10.23998,14.34572 -5.55178,2.56594 -10.6517,0.81408 -15.35815,-2.62955 -3.85739,-2.82237 -4.64021,-6.79205 -4.01364,-11.09745 1.13984,-7.832238 8.37915,-14.397752 16.319,-15.146608 0.63469,-0.05987 1.23981,-0.433471 2.25255,-0.807464 z"
         id="path7"
         style="fill:#000000;fill-opacity:1" /><path
         fill="#5fc5dc"
         opacity="1"
         stroke="none"
         d="m 271.29388,97.437233 c 7.69904,-11.001595 18.93302,-9.506508 29.65854,-9.029266 2.14926,0.09563 4.8472,1.933151 6.1019,3.777305 1.07745,1.583611 1.30426,4.803231 0.38178,6.439316 -1.34028,2.377092 -4.07373,2.550932 -6.39109,0.36161 -0.55169,-0.521255 -1.34756,-0.784088 -2.29953,-1.315666 0,2.408238 0.33518,4.492258 -0.0637,6.424808 -1.13855,5.51708 -4.47561,9.31166 -10.02374,10.61869 -6.29425,1.48279 -12.82556,1.16157 -17.02158,-4.06726 -2.75412,-3.43203 -3.7792,-8.47538 -0.34262,-13.209537 z"
         id="path8"
         style="fill:#000000;fill-opacity:1" /></g></g></svg>
